<?xml version="1.0" encoding="UTF-8"?>
<svg enable-background="new 0 0 512.011 512.011" version="1.1" viewBox="0 0 512.01 512.01" xml:space="preserve"
	xmlns="http://www.w3.org/2000/svg">
	<path d="m192.01 16.006c0 35.296 28.704 64 64 64 35.264 0 64-28.704 64-64h-128z" />
	<path
		d="m503.94 82.118-112-64c-2.4-1.376-5.152-2.112-7.936-2.112h-32c0 52.928-43.072 96-96 96s-96-43.072-96-96h-32c-2.784 0-5.504 0.736-7.936 2.112l-112 64c-6.4 3.648-9.472 11.2-7.456 18.272l32 112c2.368 8.32 11.008 13.216 19.264 11.136l44.128-11.008v267.49c0 8.832 7.168 16 16 16h288c8.832 0 16-7.168 16-16v-267.49l44.128 11.008c8.256 2.112 16.864-2.816 19.264-11.136l32-112c2.016-7.072-1.056-14.624-7.456-18.272z" />
</svg>